<?xml version="1.0" encoding="utf-8"?>
<!-- Generator: Adobe Illustrator 12.0.0, SVG Export Plug-In . SVG Version: 6.00 Build 51448)  -->
<!DOCTYPE svg PUBLIC "-//W3C//DTD SVG 1.1//EN" "http://www.w3.org/Graphics/SVG/1.1/DTD/svg11.dtd" [
	<!ENTITY ns_svg "http://www.w3.org/2000/svg">
	<!ENTITY ns_xlink "http://www.w3.org/1999/xlink">
]>
<svg  version="1.1" id="Layer_1" xmlns="&ns_svg;" xmlns:xlink="&ns_xlink;" width="235.044" height="107.728"
	 viewBox="0 0 235.044 107.728" overflow="visible" enable-background="new 0 0 235.044 107.728" xml:space="preserve">
<g>
	<path fill="#CD3732" d="M58.534,82.591V35.726h23.743L41.139,0L0,35.726h23.743v54.046c0,9.913,10.528,17.955,23.504,17.955
		h105.542l-30.11-25.137H58.534z M211.301,72V17.954C211.301,8.042,200.773,0,187.797,0H82.276l30.09,25.136h64.166V72h-23.767
		l41.14,35.728L235.044,72H211.301z"/>
</g>
<g id="Page_1">
	<path id="Rectangle_1" fill="#CD3732" d="M74.619,38.355h90.915v30.547h-45.458v4.909H99.894v-4.909H74.619V38.355z M79.765,63.72
		h10.037V48.465h5.055V63.72h5V43.537H79.765V63.72z M104.857,43.446l0.055,25.457h10.001v-5.073h10.128V43.446H104.857z
		 M114.804,48.355h5.272V58.72h-5.272V48.355z M130.132,43.446V63.63h10.055V48.482h5.038V63.63h5.018V48.537h5.037V63.63h5.036
		V43.446H130.132z"/>
</g>
</svg>
